<svg xmlns="http://www.w3.org/2000/svg" width="200" height="300" viewBox="0 0 150 225" version="1.2"><defs><clipPath id="a"><path d="M11 14h114v202H11zm0 0"/></clipPath><clipPath id="b"><path d="M162.27 69.64L36.305 219.48l-69.465-58.398L92.8 11.246zm0 0"/></clipPath><clipPath id="c"><path d="M162.27 69.64L36.305 219.48l-69.465-58.398L92.8 11.246zm0 0"/></clipPath></defs><g clip-path="url(#a)"><g clip-path="url(#b)"><g clip-path="url(#c)"><path d="M110.965 86.2C105.43 63.112 98.62 40.515 85.55 19.944c2.035-2.55 4.41-4.863 8.058-5.695 1.762-.398 3.059-.133 4.043 1.254 1.848 2.605 3.985 5.117 5.325 7.98 3.636 7.84 7.289 15.711 10.257 23.817 3.5 9.562 6.477 19.32 9.305 29.101 1.152 3.985 1.414 8.243 1.895 12.407.468 4.027-1.121 7.082-4.895 8.863-1.016.476-2.008.976-3.008 1.484-4.965 2.5-9.66 2.2-14.164-1.136a831.652 831.652 0 00-15.605-11.266C81.73 83.21 76.41 80.25 69.632 79.07c-.112 2.278-.507 4.344-.234 6.328.68 4.977 1.438 9.961 2.586 14.84 1.766 7.477 3.965 14.848 5.82 22.301.805 3.242 1.423 6.566 1.743 9.895.629 6.449-1.031 8.953-6.793 12.101-6 3.262-12.262 4.578-19.016 3.64-1.64-.23-3.312-.3-5.504-.488-1.441 12.704.91 25.215-.879 38.508 3.223-2.832 5.618-5.168 8.247-7.195 3.98-3.074 9.378-1.55 11.84 3.336-7.696 8.387-15.45 16.832-23.208 25.277-1.886 2.063-3.93 4.008-5.66 6.2-1.234 1.57-2.625 2.195-4.344 1.41-2.77-1.258-5.632-2.489-8.07-4.258-1.297-.938-2.144-2.883-2.582-4.543-1.324-5.137-2.402-10.336-3.476-15.543-1.34-6.484-3.45-12.652-6.793-18.379-.793-1.352-1.207-2.938-2.028-4.988 1.672.226 2.899.011 3.43.527 2.664 2.563 7.262.969 9.418 4.719 2.148 3.742 4.703 7.238 7.082 10.836.367.547.71 1.101 1.453 1.597.926-5.238 1.137-10.445 1.137-15.68-.008-5.308-.094-10.624.05-15.933.079-3.035 1.16-5.867 3.766-7.648a53.27 53.27 0 017.633-4.328c4.422-2.036 9.152-2.461 13.96-2.082 1.794.144 3.595.261 5.97.445-.149-1.82-.086-3.453-.43-4.988-1.367-5.989-2.883-11.95-4.3-17.922-1.61-6.797-3.27-13.578-4.677-20.414-.582-2.848-.644-5.832-.773-8.758-.254-5.797 2.633-9.695 7.488-12.613 12.399-7.434 24.043-5.532 35.235 2.464 3.41 2.43 6.644 5.094 9.984 7.621.738.563 1.578 1.016 2.371 1.516.293-.23.586-.45.887-.672zm0 0" fill="#ff8d72"/></g></g></g></svg>