<svg xmlns="http://www.w3.org/2000/svg" xmlns:xlink="http://www.w3.org/1999/xlink" width="500" height="500" viewBox="0 0 375 375" version="1.2" style=""><defs><symbol overflow="visible" id="a"><path stroke-width="3" d="M98.473-61.336c-1.7 10.106-7.766 17.512-16.016 18.723-1.09.16-2.2.164-3.312.168l12.25-67.137c.613-3.426.796-7.586.34-10.7-2.9-19.765-21.438-28.015-37.778-25.62-5.602.824-10.309 3.422-14.918 7.754-1.012-2.555-6.914-4.868-12.672-4.024-5.137.754-10.062 4.02-11.48 11.7L-7.727-13.653c-.48 2.136-.539 3.894-.289 5.605C-6.898-.418.504 3.422 7.352 2.418c4.976-.73 9.726-4.129 11.527-10.273 6.734 4.734 16.59 4.722 20.793 4.105 11.824-1.734 23.902-8.273 31.648-19.426 3.782.875 7.79 1.082 12.457.399 18.364-2.692 31.766-17.535 33.961-37.254.176-.977.04-1.91-.097-2.844-.801-5.45-5.723-7.586-10.391-6.902-4.203.617-8.086 3.41-8.777 8.441zm-72.48 4.426l8.886-45.656c3.305-14.313 10.715-19.059 17.875-20.106 6.226-.914 11.844 2.711 12.848 9.559.273 1.87.105 3.96-.2 6.23L55.79-54.28c-6.375-3.36-13.547-5.645-23.195-4.23-2.336.34-4.645.84-6.602 1.6zm10.023 33.664c-5.758.844-9.438-1.477-9.961-5.055-.73-4.98 3.812-9.781 10.191-10.719 5.45-.796 10.238 1.52 14.832 4.665-3.512 6.394-9.613 10.312-15.062 11.109zm0 0" stroke="#fff" class="pLTGtGbs_0"></path></symbol><symbol overflow="visible" id="b"><path stroke-width="3" d="M89.863-66.91c-4.355.637-8.793 3.992-9.793 10.18C76.81-36.7 67.938-28.88 60.934-27.855c-2.645.39-4.407-.782-4.77-3.274-.184-1.246-.102-2.848.113-4.625l10.04-52.98c.347-1.957.406-3.715.18-5.274-1.005-6.847-7.134-9.605-12.892-8.762-4.355.641-8.574 3.325-10.492 7.582-3.566-1.542-9.976-2.988-17.914-1.824-10.273 1.504-20.656 8.75-23.101 21.352l-8.489 44.008c-.523 2.937-.734 5.832-.324 8.632C-4.82-10.102 7.16-1.05 20.855-3.059c7.313-1.07 14.305-5.437 19.31-11.414 6.03 6.426 17.26 6.051 21.929 5.368C75.012-11 91.328-20.07 97.59-46.742c1.289-6.387 2.43-10.531 2.02-13.332-.774-5.29-5.231-7.5-9.747-6.836zm-51.586 5.972l-4.066 24.286c-1.785 10.593-7.36 13.797-10.625 14.277-3.426.5-5.457-1.426-5.98-5.008-.297-2.023-.106-3.957.156-5.426l5.375-32.742c1.562-9.926 5.738-11.812 8.23-12.176 2.957-.433 6.656 2.043 7.434 7.336.34 2.332.152 5.383-.524 9.454zm0 0" stroke="#fff" class="pLTGtGbs_1"></path></symbol><symbol overflow="visible" id="c"><path stroke-width="3" d="M72.285-56.703c-3.68 16.121-9.95 28.644-16.484 29.601-2.18.32-3.567-1.543-3.887-3.722-.137-.934-.164-2.2.121-3.516l5.442-26.867c.476-3.25.687-6.14.3-8.79C55.61-84.78 36.02-88.265 26.918-89.632c.285-1.312.234-2.738.05-3.984-1.05-7.156-8.32-12.29-15.323-11.266-9.18 1.348-13.442 10.238-12.141 19.11.57 3.89 2.566 7.73 5.512 10.48l-6.868 32.324c-.128 1.29-.101 2.559.036 3.492.754 5.137 5.187 7.188 9.546 6.547 4.356-.636 8.504-3.789 9.641-9.043l5.293-24.62c4.563.761 10.48 1.003 11.258 6.296.113.777.094 1.734-.055 2.871l-4.066 19.989c-.719 3.761-.863 7.12-.406 10.234 1.984 13.539 14.023 20.836 26.94 18.941C73.302-10.75 86.493-28.105 91.82-55.75c.172-.98.215-1.781.102-2.559-.688-4.671-6.277-7.03-11.258-6.3-4.047.593-7.664 3.03-8.379 7.906zm0 0" stroke="#fff" class="pLTGtGbs_2"></path></symbol><symbol overflow="visible" id="d"><path stroke-width="3" d="M79.852-56.063c-3.145 16.516-9.735 26.864-17.516 28.004-2.18.32-3.14-.812-3.344-2.21-.183-1.247-.101-2.848.16-4.317 1.262-7.656 1.766-9.64 1.196-13.531-.547-3.735-1.961-6.863-4.48-8.88 3.991-3.128 7.468-7.612 8.89-14.179.543-2.785.734-5.832.324-8.633-1.758-11.984-12.805-21.175-26.344-19.187-2.957.433-5.27.93-7.933 2.273l5.566-29.27c.457-2.292.781-4.41.508-6.277-1.004-6.847-6.73-10.14-12.18-9.34-5.137.75-8.992 4.817-10.539 12.673L-8.27-10.868c-.128 1.289-.148 2.246.012 3.336C-7.438-1.93-2.18.32 3.113-.457c5.602-.82 11.035-4.957 12.149-11.477l5.133-31.117c3.722 2.633 7.128 3.086 9.93 2.676 3.113-.457 5.445-1.91 6.753-2.738 1.02-.63-.058 2.87-.453 4.515-.938 4.43-1.102 8.746-.531 12.637C37.852-13.977 46.53-6.824 61.785-9.059 82.793-12.14 95.203-30.496 99.45-55.758c.172-.98.215-1.781.102-2.558-.684-4.668-5.922-6.762-10.746-6.055-4.2.617-8.262 3.277-8.953 8.308zM23.93-61.215l1.636-8.347c1.98-6.016 6.372-9.68 10.887-10.34 3.89-.57 7.14 1.02 7.645 4.441.136.934.117 1.89-.188 3.047-.879 3.785-3.781 6.754-7.355 8.39-1.914-.035-3.672-.097-5.383.157-3.113.457-5.668 1.465-7.242 2.652zm0 0" stroke="#fff" class="pLTGtGbs_3"></path></symbol><symbol overflow="visible" id="e"><path stroke-width="3" d="M103.387-67.941c-4.047.593-7.797 3.21-8.692 7.953-3.187 16.207-9.332 27.441-17.27 28.601-3.734.551-6.323-1.933-6.847-5.511-.207-1.403-.277-2.98.117-4.63l13.817-70.542c.855-3.942 1.086-7.79.468-11.993-2.304-15.714-17.171-23.87-33.203-21.519-4.824.707-11.933 3.18-17.18 9.672-1.285-4.422-6.94-6.133-12.077-5.383-4.512.664-8.442 3.148-9.356 7.734L-10.617-13.863c-.395 1.648-.32 3.226-.14 4.472C-9.798-2.855-3.423.504 2.8-.41c5.601-.82 10.39-5.023 12.031-13.37l18.516-93.805c1.918-9.66 9.46-15.695 16.465-16.723 4.98-.73 9.304 1.657 10.054 6.793.23 1.555.324 3.29-.133 5.582L46.875-46.777c-1.008 5.078-1.078 10.015-.438 14.37C48.72-16.84 60.54-8.878 75.79-11.112c17.277-2.535 32.59-17.34 38.176-47.567.148-1.136.168-2.093.031-3.027-.707-4.824-5.785-6.941-10.61-6.234zm0 0" stroke="#fff" class="pLTGtGbs_4"></path></symbol><symbol overflow="visible" id="f"><path stroke-width="3" d="M61.059-42.18c.023.157-.34-2.336-1.399-5.199.977-.937 1.883-2.344 2.613-3.879 2.075-4.281 4.758-18.504 3.844-24.73-2.328-15.875-16.953-24.54-33.758-22.075C17.73-95.918 5.066-85.793 2.117-71.21l-6.66 33.723c-.832 4.097-.883 8.078-.379 11.504 2.395 16.34 17.84 24.09 33.711 21.761 12.14-1.78 22.621-7.289 27.512-19.453 2.918.367 6.254.356 9.52-.125 18.367-2.691 30.921-17.887 33.816-35.004.215-1.78.3-3.383.093-4.785-.843-5.758-5.527-8.41-10.039-7.746-4.203.613-8.195 3.746-9.062 9.754-2.008 10.152-8.184 17.89-17.367 19.238-.621.09-1.555.23-2.203.164zM43.074-64.023c-.261 1.468-.547 2.78-.52 4.05-8.699.32-15.296 8.442-13.925 17.782.93 5.265 3.988 7.68 7.308 9.738-1.222 5.742-5.347 9.05-10.171 9.758-6.07.89-8.176-2.617-8.723-6.352-.434-2.957-.066-5.875.328-7.52L23.79-69.78c1.113-5.41 6.125-9.164 10.95-9.871 4.824-.707 8.417 2.105 8.94 5.683.41 2.801.005 6.516-.605 9.946zm0 0" stroke="#fff" class="pLTGtGbs_5"></path></symbol><symbol overflow="visible" id="g"><path stroke-width="3" d="M49.121-52.035c-3.71 18.031-12.309 27.719-21.336 29.043-5.601.82-9.527-2.102-10.144-6.301-.157-1.09-.032-2.383.12-3.516l8.887-45.656 10.114-1.484c7.937-1.164 11.316-7.383 10.566-12.52-.594-4.047-3.766-7.238-9.68-6.37l-7.003 1.026 5.976-31.874c.152-1.137.172-2.09.035-3.024-.843-5.762-5.574-9.836-12.422-8.832-5.136.754-8.968 4.973-10.039 10.691L6.835-94.32l-6.538.96c-8.402 1.231-11.207 7.047-10.477 12.028.64 4.355 3.832 7.703 8.035 7.09l5.137-.754-7.574 39.422-.023-.156c-.696 3.917-.817 7.433-.336 10.703 2.328 15.87 17.859 23.132 33.886 20.78C48.867-7.163 63.352-24.39 68.48-51.214c.149-1.137.301-2.27.165-3.203-.684-4.672-5.633-6.965-10.457-6.258-3.891.57-7.926 3.387-9.067 8.64zm0 0" stroke="#fff" class="pLTGtGbs_6"></path></symbol><symbol overflow="visible" id="h"><path stroke-width="3" d="M72.313-55.434c-4.204 19.055-19.47 28.766-32.7 30.707-11.36 1.665-19.316-2.73-20.367-9.89-.203-1.403-.254-2.824.14-4.473l.81-3.137a31.332 31.332 0 0017.027 2.27c14.16-2.074 25.312-12.773 27.46-27.395.344-3.07.376-6.097-.011-8.742-2.168-14.785-15.508-24.433-33.094-21.855C17.73-95.918 5.375-85.84 2.211-69.477L-3.066-41.52c-.7 3.918-.93 7.766-.407 11.348 2.72 18.52 21.836 27.48 44.559 24.149 21.633-3.172 44.668-17.364 50.582-48.594.285-1.313.277-2.426.14-3.36-.706-4.824-5.453-6.832-10.12-6.144-4.356.637-8.684 3.656-9.376 8.687zM33.804-79.516c4.36-.64 7.683 2.532 8.347 7.043.18 1.246.207 2.512-.074 3.825-.805 5.367-5.2 7.918-9.867 8.601-2.957.434-6.008.246-8.367-.68l1.898-9.816c1.004-5.074 4.485-8.45 8.063-8.973zm0 0" stroke="#fff" class="pLTGtGbs_7"></path></symbol></defs><g fill="#051c2c"><use xlink:href="#a" x="12.205" y="205.81"></use><use xlink:href="#b" x="111.959" y="191.182"></use><use xlink:href="#c" x="193.661" y="179.2"></use><use xlink:href="#d" x="267.271" y="168.406"></use><use xlink:href="#e" x="29.55" y="341.161"></use><use xlink:href="#f" x="125.569" y="327.081"></use><use xlink:href="#g" x="206.804" y="315.168"></use><use xlink:href="#h" x="257.693" y="307.706"></use></g><style data-made-with="vivus-instant">.pLTGtGbs_0{stroke-dasharray:775 777;stroke-dashoffset:776;animation:pLTGtGbs_draw 2000ms linear 0ms forwards;}.pLTGtGbs_1{stroke-dasharray:553 555;stroke-dashoffset:554;animation:pLTGtGbs_draw 2000ms linear 142ms forwards;}.pLTGtGbs_2{stroke-dasharray:449 451;stroke-dashoffset:450;animation:pLTGtGbs_draw 2000ms linear 285ms forwards;}.pLTGtGbs_3{stroke-dasharray:624 626;stroke-dashoffset:625;animation:pLTGtGbs_draw 2000ms linear 428ms forwards;}.pLTGtGbs_4{stroke-dasharray:746 748;stroke-dashoffset:747;animation:pLTGtGbs_draw 2000ms linear 571ms forwards;}.pLTGtGbs_5{stroke-dasharray:524 526;stroke-dashoffset:525;animation:pLTGtGbs_draw 2000ms linear 714ms forwards;}.pLTGtGbs_6{stroke-dasharray:489 491;stroke-dashoffset:490;animation:pLTGtGbs_draw 2000ms linear 857ms forwards;}.pLTGtGbs_7{stroke-dasharray:501 503;stroke-dashoffset:502;animation:pLTGtGbs_draw 2000ms linear 1000ms forwards;}@keyframes pLTGtGbs_draw{100%{stroke-dashoffset:0;}}@keyframes pLTGtGbs_fade{0%{stroke-opacity:1;}94.44444444444444%{stroke-opacity:1;}100%{stroke-opacity:0;}}</style></svg>